<!-- https://upload.wikimedia.org/wikipedia/commons/d/d9/Logo_of_Moskvich.svg -->
<svg xmlns="http://www.w3.org/2000/svg" width="407" height="94" viewBox="0 0 407 94" fill="none">
    <g clip-path="url(#clip0_708_2767)">
    <!-- <path d="M396.749 93.9328H18.4194L21.9918 85.0234H400.337L396.749 93.9328Z" fill="#D6001C"/> -->
    <path d="M283.911 69.4587C283.309 71.5537 281.331 72.8311 279.494 72.3096C277.654 71.7893 276.651 69.6685 277.252 67.5735C277.854 65.4785 279.832 64.2011 281.67 64.7226C283.508 65.2428 284.512 67.3636 283.911 69.4587ZM289.42 40.5401C289.42 40.5401 289.031 51.7377 281.646 58.1078L289.42 40.5401ZM131.338 68.2933C130.222 70.8455 127.439 72.195 125.357 71.2962C123.273 70.3974 122.674 67.6186 123.791 65.0664C124.909 62.5142 127.559 61.206 129.641 62.1061C131.725 63.0048 132.454 65.7411 131.338 68.2933ZM77.8004 27.7986C77.8004 27.7986 80.5211 38.0305 69.0551 50.1938L77.8004 27.7986ZM389.706 70.3562C387.956 70.3562 388.554 68.3667 388.554 68.3667L394.287 55.011L377.531 55.0354L374.485 62.1241H383.039L379.491 70.3562H342.54C340.661 70.4308 341.11 68.9191 341.11 68.9191L346.221 55.0226L338.284 55.0354L332.656 70.0767C332.45 70.5557 331.726 71.376 330.397 71.0773C328.945 70.6304 329.741 68.6294 329.741 68.6294L334.304 55.0354L326.346 55.0303L321.185 70.3562L288.934 70.3665C290.974 63.1272 285.145 60.2312 285.145 60.2312C304.965 41.1196 288.69 26.1865 288.69 26.1865L269.737 70.3562C269.737 70.3562 236.892 70.3819 233.512 70.3562C230.132 70.3317 231.233 68.641 231.86 68.0937C234.69 65.5351 246.376 55.02 246.376 55.02H236.175L225.55 63.9642L238.215 34.4598H228.305L214.685 70.3317C214.685 70.3317 181.012 70.3446 174.923 70.3472C174.27 70.3472 173.674 69.9557 173.448 69.3466C172.977 68.0731 173.055 66.4738 173.784 64.9853C175.032 62.4318 177.719 61.1699 179.785 62.1666C180.977 62.7422 181.699 63.9436 181.86 65.3471H188.411C188.495 60.96 186.561 57.0378 182.976 55.3084C177.635 52.7318 170.688 55.9935 167.461 62.5928C166.201 65.1707 165.705 67.8735 165.873 70.3665H137.966C140.27 63.9861 138.285 57.4215 133.107 55.1861C127.642 52.8258 120.687 56.2562 117.758 62.9508C116.673 65.4321 116.207 67.9933 116.328 70.3562H116.322H89.7952C85.1329 70.0677 86.6429 65.4437 86.6429 65.4437L103.257 26.9307H91.015L78.7712 57.0455C74.871 64.9866 71.2975 67.1499 70.5561 67.4473C64.5288 69.8643 65.6552 62.5477 65.6552 62.5477C97.4271 30.9843 76.7311 0.579887 76.7311 0.579887L54.871 60.8107C23.9727 74.1303 9.10685 56.4673 9.10685 56.4673L0.944824 72.683C28.6377 88.8999 53.4128 71.2356 53.4128 71.2356C55.3947 77.1435 58.1426 79.7098 61.0292 80.3936C69.5114 81.9568 75.5658 72.9727 75.5658 72.9727C77.4154 78.6887 82.2541 79.2012 82.9255 79.2102C83.5969 79.2205 108.285 79.2102 108.285 79.2102C114.697 79.2102 117.531 75.2493 117.602 75.2506C118.535 77.0392 119.956 78.4724 121.861 79.2952C126.136 81.1417 131.527 79.3634 135.077 75.3021C136.403 78.999 139.671 79.2102 139.671 79.2102C139.671 79.2102 155.921 79.2321 159.782 79.2102C163.543 79.1909 167.093 75.5274 167.278 75.3356C168.201 77.0108 169.667 79.0994 172.25 79.2102C172.248 79.2102 203.062 79.2038 205.298 79.2102C208.468 79.2205 212.908 75.2802 212.908 75.2802L211.281 79.2102H219.016L221.745 72.8684C223.622 78.4144 228.049 79.2012 228.604 79.2102C229.159 79.2205 262.451 79.2102 262.451 79.2102C267.308 79.2849 270.589 75.2313 270.589 75.2313C272.41 78.5792 274.411 79.733 276.533 79.9596C282.077 80.5507 285.727 76.4481 285.727 76.4481C286.311 78.7647 288.433 79.2128 288.94 79.2102C289.447 79.2076 313.1 79.2102 313.1 79.2102C318.231 78.7131 321.035 75.3562 321.035 75.3562C322.194 78.9243 324.905 79.7974 326.77 79.997C332.016 80.3472 334.698 75.2892 334.698 75.2892C336.532 78.7389 339.505 79.2128 340.236 79.2102C340.969 79.2076 372.558 79.2102 372.558 79.2102C376.93 78.9218 378.966 75.2557 378.966 75.2557C379.981 78.5226 381.923 79.2128 382.873 79.2102C383.82 79.2076 402.874 79.2102 402.874 79.2102L406.687 70.3497L389.706 70.3562Z" fill="#D6001C"/>
    </g>
    <defs>
    <clipPath id="clip0_708_2767">
    <rect width="407" height="94" fill="white"/>
    </clipPath>
    </defs>
    </svg>